ffmpeg started on 2025-05-26 at 19:17:58
Report written to "D:\Convert\FFMetrics\reports\ssim_report-6.txt"
Log level: 32
Command line:
ffmpeg -hide_banner -nostdin -i "G:\\\xc0\xed\xe8\xec\xe5\\\xce\xed\xe3\xee\xe8\xed\xe3\xe8\\!_34_\xc2\xe5\xf1\xed\xe0_2024\\DreamCast\\\xcc\xee\xe9 \xf1\xee\xf1\xe5\xe4-\xb8\xea\xe0\xe9\\[DC] Tonari no Youkai-san - 08_Telegram_HEVC.mkv" -i "G:\\\xc0\xed\xe8\xec\xe5\\\xce\xed\xe3\xee\xe8\xed\xe3\xe8\\!_34_\xc2\xe5\xf1\xed\xe0_2024\\DreamCast\\\xcc\xee\xe9 \xf1\xee\xf1\xe5\xe4-\xb8\xea\xe0\xe9\\[DC] Tonari no Youkai-san - 08_Telegram.mp4" -lavfi "[0:v]settb=AVTB,setpts=PTS-STARTPTS,format=pix_fmts=yuv420p10,fps=24000/1001,scale=1920:1080:flags=bicubic[main];[1:v]settb=AVTB,setpts=PTS-STARTPTS,format=pix_fmts=yuv420p,fps=24000/1001,scale=1920:1080:flags=bicubic[ref];[main][ref]ssim=eof_action=endall:stats_file='D\\:/Convert/FFMetrics/logs/ssim_logfile-6.txt'" -f null -
Input #0, matroska,webm, from 'G:\Аниме\Онгоинги\!_34_Весна_2024\DreamCast\Мой сосед-ёкай\[DC] Tonari no Youkai-san - 08_Telegram_HEVC.mkv':
  Metadata:
    COMPATIBLE_BRANDS: isomiso2avc1mp41
    MAJOR_BRAND     : isom
    MINOR_VERSION   : 512
    ENCODER         : Lavf61.7.100
  Duration: 00:23:46.73, start: -0.021000, bitrate: 807 kb/s
  Stream #0:0: Video: hevc (Main 10), yuv420p10le(tv, bt709, progressive), 1920x1080 [SAR 1:1 DAR 16:9], 23.98 fps, 23.98 tbr, 1k tbn (default)
      Metadata:
        HANDLER_NAME    : VideoHandler
        VENDOR_ID       : [0][0][0][0]
        ENCODER         : Lavc61.19.100 libx265
        BPS             : 610506
        DURATION        : 00:23:46.549708333
        NUMBER_OF_FRAMES: 34203
        NUMBER_OF_BYTES : 108864634
        _STATISTICS_WRITING_APP: mkvpropedit v66.0.0 ('Josie') 64-bit
        _STATISTICS_WRITING_DATE_UTC: 2025-05-26 13:51:13
        _STATISTICS_TAGS: BPS DURATION NUMBER_OF_FRAMES NUMBER_OF_BYTES
  Stream #0:1: Audio: aac (LC), 48000 Hz, stereo, fltp (default)
      Metadata:
        HANDLER_NAME    : SoundHandler
        VENDOR_ID       : [0][0][0][0]
        ENCODER         : Lavc61.19.100 aac
        BPS             : 193478
        DURATION        : 00:23:46.730000000
        NUMBER_OF_FRAMES: 66879
        NUMBER_OF_BYTES : 34505117
        _STATISTICS_WRITING_APP: mkvpropedit v66.0.0 ('Josie') 64-bit
        _STATISTICS_WRITING_DATE_UTC: 2025-05-26 13:51:13
        _STATISTICS_TAGS: BPS DURATION NUMBER_OF_FRAMES NUMBER_OF_BYTES
Input #1, mov,mp4,m4a,3gp,3g2,mj2, from 'G:\Аниме\Онгоинги\!_34_Весна_2024\DreamCast\Мой сосед-ёкай\[DC] Tonari no Youkai-san - 08_Telegram.mp4':
  Metadata:
    major_brand     : isom
    minor_version   : 512
    compatible_brands: isomiso2avc1mp41
    encoder         : Lavf60.16.100
  Duration: 00:23:46.68, start: 0.000000, bitrate: 3503 kb/s
  Stream #1:0[0x1](und): Video: h264 (High) (avc1 / 0x31637661), yuv420p(tv, bt709, progressive), 1920x1080 [SAR 1:1 DAR 16:9], 3356 kb/s, 23.98 fps, 23.98 tbr, 24k tbn (default)
      Metadata:
        handler_name    : VideoHandler
        vendor_id       : [0][0][0][0]
        encoder         : Lavc60.31.102 h264_qsv
  Stream #1:1[0x2](und): Audio: aac (HE-AACv2) (mp4a / 0x6134706D), 48000 Hz, stereo, fltp, 144 kb/s (default)
      Metadata:
        handler_name    : SoundHandler
        vendor_id       : [0][0][0][0]
Stream mapping:
  Stream #0:0 (hevc) -> settb:default
  Stream #1:0 (h264) -> settb:default
  ssim:default -> Stream #0:0 (wrapped_avframe)
  Stream #0:1 -> #0:1 (aac (native) -> pcm_s16le (native))
Output #0, null, to 'pipe:':
  Metadata:
    COMPATIBLE_BRANDS: isomiso2avc1mp41
    MAJOR_BRAND     : isom
    MINOR_VERSION   : 512
    encoder         : Lavf61.7.100
  Stream #0:0: Video: wrapped_avframe, yuv420p10le(tv, bt709, progressive), 1920x1080 [SAR 1:1 DAR 16:9], q=2-31, 200 kb/s, 23.98 fps, 23.98 tbn
      Metadata:
        encoder         : Lavc61.19.100 wrapped_avframe
  Stream #0:1: Audio: pcm_s16le, 48000 Hz, stereo, s16, 1536 kb/s (default)
      Metadata:
        HANDLER_NAME    : SoundHandler
        VENDOR_ID       : [0][0][0][0]
        _STATISTICS_TAGS: BPS DURATION NUMBER_OF_FRAMES NUMBER_OF_BYTES
        BPS             : 193478
        DURATION        : 00:23:46.730000000
        NUMBER_OF_FRAMES: 66879
        NUMBER_OF_BYTES : 34505117
        _STATISTICS_WRITING_APP: mkvpropedit v66.0.0 ('Josie') 64-bit
        _STATISTICS_WRITING_DATE_UTC: 2025-05-26 13:51:13
        encoder         : Lavc61.19.100 pcm_s16le
frame=  183 fps=0.0 q=-0.0 size=N/A time=00:00:07.63 bitrate=N/A speed=14.9x    frame=  383 fps=368 q=-0.0 size=N/A time=00:00:15.97 bitrate=N/A speed=15.4x    frame=  604 fps=390 q=-0.0 size=N/A time=00:00:25.19 bitrate=N/A speed=16.3x    frame=  810 fps=394 q=-0.0 size=N/A time=00:00:33.78 bitrate=N/A speed=16.4x    frame= 1053 fps=408 q=-0.0 size=N/A time=00:00:43.91 bitrate=N/A speed=  17x    frame= 1268 fps=409 q=-0.0 size=N/A time=00:00:52.88 bitrate=N/A speed=17.1x    frame= 1474 fps=409 q=-0.0 size=N/A time=00:01:01.47 bitrate=N/A speed=17.1x    frame= 1678 fps=406 q=-0.0 size=N/A time=00:01:09.98 bitrate=N/A speed=16.9x    frame= 1909 fps=412 q=-0.0 size=N/A time=00:01:19.62 bitrate=N/A speed=17.2x    frame= 2108 fps=408 q=-0.0 size=N/A time=00:01:27.92 bitrate=N/A speed=  17x    frame= 2356 fps=416 q=-0.0 size=N/A time=00:01:38.26 bitrate=N/A speed=17.3x    frame= 2648 fps=428 q=-0.0 size=N/A time=00:01:50.44 bitrate=N/A speed=17.8x    frame= 2931 fps=437 q=-0.0 size=N/A time=00:02:02.24 bitrate=N/A speed=18.2x    frame= 3226 fps=447 q=-0.0 size=N/A time=00:02:14.55 bitrate=N/A speed=18.6x    frame= 3507 fps=453 q=-0.0 size=N/A time=00:02:26.27 bitrate=N/A speed=18.9x    frame= 3739 fps=453 q=-0.0 size=N/A time=00:02:35.94 bitrate=N/A speed=18.9x    frame= 4001 fps=456 q=-0.0 size=N/A time=00:02:46.87 bitrate=N/A speed=  19x    frame= 4272 fps=460 q=-0.0 size=N/A time=00:02:58.17 bitrate=N/A speed=19.2x    frame= 4540 fps=463 q=-0.0 size=N/A time=00:03:09.35 bitrate=N/A speed=19.3x    frame= 4816 fps=467 q=-0.0 size=N/A time=00:03:20.86 bitrate=N/A speed=19.5x    frame= 5082 fps=469 q=-0.0 size=N/A time=00:03:31.96 bitrate=N/A speed=19.6x    frame= 5333 fps=470 q=-0.0 size=N/A time=00:03:42.43 bitrate=N/A speed=19.6x    frame= 5558 fps=468 q=-0.0 size=N/A time=00:03:51.81 bitrate=N/A speed=19.5x    frame= 5768 fps=466 q=-0.0 size=N/A time=00:04:00.57 bitrate=N/A speed=19.4x    frame= 5980 fps=464 q=-0.0 size=N/A time=00:04:09.41 bitrate=N/A speed=19.3x    frame= 6203 fps=463 q=-0.0 size=N/A time=00:04:18.71 bitrate=N/A speed=19.3x    frame= 6443 fps=463 q=-0.0 size=N/A time=00:04:28.72 bitrate=N/A speed=19.3x    frame= 6686 fps=463 q=-0.0 size=N/A time=00:04:38.86 bitrate=N/A speed=19.3x    frame= 6928 fps=463 q=-0.0 size=N/A time=00:04:48.95 bitrate=N/A speed=19.3x    frame= 7207 fps=466 q=-0.0 size=N/A time=00:05:00.59 bitrate=N/A speed=19.4x    frame= 7488 fps=469 q=-0.0 size=N/A time=00:05:12.31 bitrate=N/A speed=19.5x    frame= 7756 fps=470 q=-0.0 size=N/A time=00:05:23.48 bitrate=N/A speed=19.6x    frame= 8035 fps=472 q=-0.0 size=N/A time=00:05:35.12 bitrate=N/A speed=19.7x    frame= 8262 fps=471 q=-0.0 size=N/A time=00:05:44.59 bitrate=N/A speed=19.6x    frame= 8518 fps=472 q=-0.0 size=N/A time=00:05:55.27 bitrate=N/A speed=19.7x    frame= 8794 fps=473 q=-0.0 size=N/A time=00:06:06.78 bitrate=N/A speed=19.7x    frame= 9073 fps=475 q=-0.0 size=N/A time=00:06:18.41 bitrate=N/A speed=19.8x    frame= 9333 fps=476 q=-0.0 size=N/A time=00:06:29.26 bitrate=N/A speed=19.8x    frame= 9599 fps=477 q=-0.0 size=N/A time=00:06:40.35 bitrate=N/A speed=19.9x    frame= 9880 fps=478 q=-0.0 size=N/A time=00:06:52.07 bitrate=N/A speed=  20x    frame=10136 fps=479 q=-0.0 size=N/A time=00:07:02.75 bitrate=N/A speed=  20x    frame=10403 fps=480 q=-0.0 size=N/A time=00:07:13.89 bitrate=N/A speed=  20x    frame=10670 fps=481 q=-0.0 size=N/A time=00:07:25.02 bitrate=N/A speed=20.1x    frame=10960 fps=483 q=-0.0 size=N/A time=00:07:37.12 bitrate=N/A speed=20.1x    frame=11226 fps=484 q=-0.0 size=N/A time=00:07:48.21 bitrate=N/A speed=20.2x    frame=11490 fps=484 q=-0.0 size=N/A time=00:07:59.22 bitrate=N/A speed=20.2x    frame=11767 fps=485 q=-0.0 size=N/A time=00:08:10.78 bitrate=N/A speed=20.2x    frame=12028 fps=486 q=-0.0 size=N/A time=00:08:21.66 bitrate=N/A speed=20.3x    frame=12312 fps=487 q=-0.0 size=N/A time=00:08:33.51 bitrate=N/A speed=20.3x    frame=12598 fps=488 q=-0.0 size=N/A time=00:08:45.44 bitrate=N/A speed=20.4x    frame=12894 fps=490 q=-0.0 size=N/A time=00:08:57.78 bitrate=N/A speed=20.4x    frame=13174 fps=491 q=-0.0 size=N/A time=00:09:09.46 bitrate=N/A speed=20.5x    frame=13463 fps=492 q=-0.0 size=N/A time=00:09:21.51 bitrate=N/A speed=20.5x    frame=13746 fps=493 q=-0.0 size=N/A time=00:09:33.32 bitrate=N/A speed=20.6x    frame=14018 fps=494 q=-0.0 size=N/A time=00:09:44.66 bitrate=N/A speed=20.6x    frame=14294 fps=495 q=-0.0 size=N/A time=00:09:56.17 bitrate=N/A speed=20.6x    frame=14570 fps=495 q=-0.0 size=N/A time=00:10:07.69 bitrate=N/A speed=20.7x    frame=14867 fps=497 q=-0.0 size=N/A time=00:10:20.07 bitrate=N/A speed=20.7x    frame=15143 fps=498 q=-0.0 size=N/A time=00:10:31.58 bitrate=N/A speed=20.8x    frame=15406 fps=498 q=-0.0 size=N/A time=00:10:42.55 bitrate=N/A speed=20.8x    frame=15656 fps=498 q=-0.0 size=N/A time=00:10:52.98 bitrate=N/A speed=20.8x    frame=15935 fps=498 q=-0.0 size=N/A time=00:11:04.62 bitrate=N/A speed=20.8x    frame=16207 fps=499 q=-0.0 size=N/A time=00:11:15.96 bitrate=N/A speed=20.8x    frame=16490 fps=499 q=-0.0 size=N/A time=00:11:27.77 bitrate=N/A speed=20.8x    frame=16767 fps=500 q=-0.0 size=N/A time=00:11:39.32 bitrate=N/A speed=20.9x    frame=17052 fps=501 q=-0.0 size=N/A time=00:11:51.21 bitrate=N/A speed=20.9x    frame=17324 fps=501 q=-0.0 size=N/A time=00:12:02.55 bitrate=N/A speed=20.9x    frame=17589 fps=501 q=-0.0 size=N/A time=00:12:13.60 bitrate=N/A speed=20.9x    frame=17857 fps=502 q=-0.0 size=N/A time=00:12:24.78 bitrate=N/A speed=20.9x    frame=18128 fps=502 q=-0.0 size=N/A time=00:12:36.08 bitrate=N/A speed=20.9x    frame=18374 fps=502 q=-0.0 size=N/A time=00:12:46.34 bitrate=N/A speed=20.9x    frame=18618 fps=501 q=-0.0 size=N/A time=00:12:56.52 bitrate=N/A speed=20.9x    frame=18888 fps=502 q=-0.0 size=N/A time=00:13:07.78 bitrate=N/A speed=20.9x    frame=19144 fps=502 q=-0.0 size=N/A time=00:13:18.46 bitrate=N/A speed=20.9x    frame=19420 fps=502 q=-0.0 size=N/A time=00:13:29.97 bitrate=N/A speed=20.9x    frame=19677 fps=502 q=-0.0 size=N/A time=00:13:40.69 bitrate=N/A speed=20.9x    frame=19950 fps=502 q=-0.0 size=N/A time=00:13:52.08 bitrate=N/A speed=20.9x    frame=20197 fps=502 q=-0.0 size=N/A time=00:14:02.38 bitrate=N/A speed=20.9x    frame=20448 fps=502 q=-0.0 size=N/A time=00:14:12.85 bitrate=N/A speed=20.9x    frame=20690 fps=501 q=-0.0 size=N/A time=00:14:22.94 bitrate=N/A speed=20.9x    frame=20932 fps=501 q=-0.0 size=N/A time=00:14:33.03 bitrate=N/A speed=20.9x    frame=21195 fps=501 q=-0.0 size=N/A time=00:14:44.00 bitrate=N/A speed=20.9x    frame=21420 fps=500 q=-0.0 size=N/A time=00:14:53.39 bitrate=N/A speed=20.9x    frame=21668 fps=500 q=-0.0 size=N/A time=00:15:03.73 bitrate=N/A speed=20.9x    frame=21919 fps=500 q=-0.0 size=N/A time=00:15:14.20 bitrate=N/A speed=20.9x    frame=22179 fps=500 q=-0.0 size=N/A time=00:15:25.04 bitrate=N/A speed=20.9x    frame=22447 fps=500 q=-0.0 size=N/A time=00:15:36.22 bitrate=N/A speed=20.9x    frame=22717 fps=500 q=-0.0 size=N/A time=00:15:47.48 bitrate=N/A speed=20.9x    frame=23006 fps=501 q=-0.0 size=N/A time=00:15:59.54 bitrate=N/A speed=20.9x    frame=23289 fps=501 q=-0.0 size=N/A time=00:16:11.34 bitrate=N/A speed=20.9x    frame=23565 fps=502 q=-0.0 size=N/A time=00:16:22.85 bitrate=N/A speed=20.9x    frame=23826 fps=502 q=-0.0 size=N/A time=00:16:33.74 bitrate=N/A speed=20.9x    frame=24076 fps=502 q=-0.0 size=N/A time=00:16:44.16 bitrate=N/A speed=20.9x    frame=24346 fps=502 q=-0.0 size=N/A time=00:16:55.43 bitrate=N/A speed=20.9x    frame=24607 fps=502 q=-0.0 size=N/A time=00:17:06.31 bitrate=N/A speed=20.9x    frame=24835 fps=501 q=-0.0 size=N/A time=00:17:15.82 bitrate=N/A speed=20.9x    frame=25031 fps=500 q=-0.0 size=N/A time=00:17:24.00 bitrate=N/A speed=20.9x    frame=25232 fps=499 q=-0.0 size=N/A time=00:17:32.38 bitrate=N/A speed=20.8x    frame=25474 fps=499 q=-0.0 size=N/A time=00:17:42.47 bitrate=N/A speed=20.8x    frame=25742 fps=499 q=-0.0 size=N/A time=00:17:53.65 bitrate=N/A speed=20.8x    frame=26026 fps=499 q=-0.0 size=N/A time=00:18:05.50 bitrate=N/A speed=20.8x    frame=26305 fps=500 q=-0.0 size=N/A time=00:18:17.13 bitrate=N/A speed=20.8x    frame=26556 fps=500 q=-0.0 size=N/A time=00:18:27.60 bitrate=N/A speed=20.8x    frame=26836 fps=500 q=-0.0 size=N/A time=00:18:39.28 bitrate=N/A speed=20.9x    frame=27085 fps=500 q=-0.0 size=N/A time=00:18:49.67 bitrate=N/A speed=20.9x    frame=27359 fps=500 q=-0.0 size=N/A time=00:19:01.09 bitrate=N/A speed=20.9x    frame=27625 fps=500 q=-0.0 size=N/A time=00:19:12.19 bitrate=N/A speed=20.9x    frame=27902 fps=501 q=-0.0 size=N/A time=00:19:23.74 bitrate=N/A speed=20.9x    frame=28157 fps=501 q=-0.0 size=N/A time=00:19:34.38 bitrate=N/A speed=20.9x    frame=28411 fps=501 q=-0.0 size=N/A time=00:19:44.97 bitrate=N/A speed=20.9x    frame=28643 fps=500 q=-0.0 size=N/A time=00:19:54.65 bitrate=N/A speed=20.9x    frame=28846 fps=499 q=-0.0 size=N/A time=00:20:03.11 bitrate=N/A speed=20.8x    frame=29095 fps=499 q=-0.0 size=N/A time=00:20:13.50 bitrate=N/A speed=20.8x    frame=29308 fps=498 q=-0.0 size=N/A time=00:20:22.38 bitrate=N/A speed=20.8x    frame=29546 fps=498 q=-0.0 size=N/A time=00:20:32.31 bitrate=N/A speed=20.8x    frame=29763 fps=497 q=-0.0 size=N/A time=00:20:41.36 bitrate=N/A speed=20.7x    frame=30023 fps=497 q=-0.0 size=N/A time=00:20:52.20 bitrate=N/A speed=20.7x    frame=30322 fps=498 q=-0.0 size=N/A time=00:21:04.68 bitrate=N/A speed=20.8x    frame=30592 fps=498 q=-0.0 size=N/A time=00:21:15.94 bitrate=N/A speed=20.8x    frame=30860 fps=499 q=-0.0 size=N/A time=00:21:27.11 bitrate=N/A speed=20.8x    frame=31134 fps=499 q=-0.0 size=N/A time=00:21:38.54 bitrate=N/A speed=20.8x    frame=31409 fps=499 q=-0.0 size=N/A time=00:21:50.01 bitrate=N/A speed=20.8x    frame=31683 fps=499 q=-0.0 size=N/A time=00:22:01.44 bitrate=N/A speed=20.8x    frame=31950 fps=499 q=-0.0 size=N/A time=00:22:12.58 bitrate=N/A speed=20.8x    frame=32242 fps=500 q=-0.0 size=N/A time=00:22:24.76 bitrate=N/A speed=20.9x    frame=32508 fps=500 q=-0.0 size=N/A time=00:22:35.85 bitrate=N/A speed=20.9x    frame=32798 fps=501 q=-0.0 size=N/A time=00:22:47.94 bitrate=N/A speed=20.9x    frame=33082 fps=501 q=-0.0 size=N/A time=00:22:59.79 bitrate=N/A speed=20.9x    frame=33372 fps=501 q=-0.0 size=N/A time=00:23:11.89 bitrate=N/A speed=20.9x    frame=33608 fps=501 q=-0.0 size=N/A time=00:23:21.73 bitrate=N/A speed=20.9x    frame=33831 fps=501 q=-0.0 size=N/A time=00:23:31.03 bitrate=N/A speed=20.9x    frame=34066 fps=500 q=-0.0 size=N/A time=00:23:40.83 bitrate=N/A speed=20.9x    [Parsed_ssim_10 @ 00000205e21678c0] SSIM Y:0.995341 (23.317365) U:0.994556 (22.640460) V:0.994655 (22.720352) All:0.995096 (23.094436)
[out#0/null @ 00000205d4ce4e80] video:14697KiB audio:267516KiB subtitle:0KiB other streams:0KiB global headers:0KiB muxing overhead: unknown
frame=34203 fps=500 q=-0.0 Lsize=N/A time=00:23:46.55 bitrate=N/A speed=20.9x    
